<svg width="39" height="37" viewBox="0 0 39 37" fill="none" xmlns="http://www.w3.org/2000/svg">
<g clip-path="url(#clip0_84_60)">
<path d="M6.99526 11.0806C6.01593 13.6094 5.52346 16.505 5.52346 19.7725C5.52346 23.0401 6.02152 25.8601 7.01205 28.389C8.00258 30.9178 9.70943 33.7864 12.1214 37.0054H6.23978C4.06845 34.1692 2.48472 31.3869 1.48859 28.6586C0.492467 25.9248 0 22.9646 0 19.7725C0 16.5804 0.503659 13.5825 1.51098 10.8487C2.5183 8.11498 4.09643 5.34888 6.23978 2.53964H12.1214C9.68145 5.70475 7.9746 8.55173 6.99526 11.0806ZM29.9341 19.7725C29.9341 22.9646 29.4361 25.9248 28.4455 28.6586C27.4494 31.3923 25.8713 34.1746 23.6944 37.0054H17.8127C20.2247 33.7864 21.926 30.9178 22.9221 28.389C23.9182 25.8601 24.4107 22.9915 24.4107 19.7725C24.4107 16.5535 23.9182 13.6094 22.9389 11.0806C21.9595 8.55173 20.2471 5.70475 17.8127 2.53964H23.6944C25.8377 5.34888 27.4158 8.11498 28.4232 10.8487C29.4305 13.5825 29.9341 16.5535 29.9341 19.7725ZM33.0848 5.69936H39V0H33.0848V5.69936Z" fill="url(#paint0_linear_84_60)"/>
</g>
<defs>
<linearGradient id="paint0_linear_84_60" x1="0" y1="18.5" x2="39" y2="18.5" gradientUnits="userSpaceOnUse">
<stop stop-color="#FF3E5A"/>
<stop offset="0.16" stop-color="#FE3C5E"/>
<stop offset="0.35" stop-color="#FB386C"/>
<stop offset="0.54" stop-color="#F63082"/>
<stop offset="0.74" stop-color="#F026A1"/>
<stop offset="0.94" stop-color="#E719C9"/>
<stop offset="1" stop-color="#E515D7"/>
</linearGradient>
<clipPath id="clip0_84_60">
<rect width="39" height="37" fill="white"/>
</clipPath>
</defs>
</svg>
